<svg width="42" height="23" viewBox="0 0 42 23" fill="none" xmlns="http://www.w3.org/2000/svg">
<path d="M42 7.59102C41.9803 7.60855 41.9485 7.6228 41.943 7.64362C41.5605 9.20966 40.5839 10.1576 38.9958 10.4469C38.7196 10.4974 38.7766 10.7034 38.7525 10.8491C38.5158 12.2059 38.2944 13.5648 38.0686 14.9237C37.655 17.3982 37.2411 19.8732 36.8268 22.3484C36.7933 22.3504 36.7603 22.3404 36.7334 22.3204C36.7065 22.3004 36.6876 22.2715 36.6799 22.2388C36.4805 21.3621 35.8886 20.8076 35.1849 20.3254C33.587 19.2295 31.7544 18.7583 29.9043 18.3418C27.6849 17.8421 25.4238 17.6372 23.1594 17.5363C21.2376 17.4468 19.3121 17.4724 17.3933 17.613C15.8893 17.7145 14.3924 17.904 12.9106 18.1807C10.9695 18.5588 9.04712 19.0092 7.31431 20.0185C6.40572 20.5479 5.57713 21.1616 5.31628 22.2728C5.3086 22.3079 5.23189 22.3254 5.18805 22.3517C4.55236 18.5424 3.91849 14.733 3.28645 10.9236C3.23822 10.6321 3.14837 10.4743 2.81299 10.4042C0.99908 10.0239 -0.213129 8.33404 0.0312826 6.5795C0.138244 5.69425 0.578451 4.88298 1.26235 4.31072C1.94625 3.73845 2.82248 3.44816 3.71282 3.4989C5.80402 3.58986 7.38339 5.62826 6.92854 7.67431C6.86059 7.97897 6.91427 8.14006 7.1806 8.30116C7.99714 8.79651 8.79396 9.32473 9.6061 9.83542C11.6217 11.0902 13.9902 10.7001 15.4884 8.86773C16.3203 7.85293 17.1445 6.83264 17.983 5.82441C18.1375 5.6381 18.1539 5.5099 18.0235 5.29181C17.6437 4.67712 17.4667 3.95857 17.5176 3.2378C17.5686 2.51702 17.8448 1.83051 18.3074 1.27534C18.758 0.729117 19.3634 0.332077 20.044 0.136467C20.7246 -0.0591419 21.4485 -0.0441567 22.1204 0.179437C22.8059 0.408765 23.4036 0.844646 23.8314 1.42723C24.2592 2.00982 24.4962 2.71053 24.5097 3.43317C24.5304 4.07987 24.3563 4.71787 24.01 5.26442C23.8697 5.4836 23.8708 5.62606 24.0428 5.83099C24.8835 6.83703 25.7044 7.85951 26.5374 8.87322C28.0214 10.6793 30.3592 11.0837 32.3529 9.86831C33.2154 9.34227 34.0572 8.78227 34.9175 8.25075C35.1126 8.1302 35.1554 8.00966 35.1104 7.78719C34.6972 5.71264 35.8995 3.92413 37.948 3.54605C39.7016 3.21728 41.4925 4.41619 41.909 6.19374C41.9299 6.28141 41.8915 6.39211 42 6.448V7.59102Z" fill="#FFD900"/>
</svg>
